<svg id="visual" viewBox="0 0 400 50" width="400" height="50" xmlns="http://www.w3.org/2000/svg" xmlns:xlink="http://www.w3.org/1999/xlink" version="1.1"><rect x="0" y="0" width="400" height="50" fill="#fc7f3c"></rect><path d="M0 23L7.3 21C14.7 19 29.3 15 44.2 14.2C59 13.3 74 15.7 88.8 17.5C103.7 19.3 118.3 20.7 133.2 20.2C148 19.7 163 17.3 177.8 15.7C192.7 14 207.3 13 222.2 12.7C237 12.3 252 12.7 266.8 14.7C281.7 16.7 296.3 20.3 311.2 22.2C326 24 341 24 355.8 23.8C370.7 23.7 385.3 23.3 392.7 23.2L400 23L400 0L392.7 0C385.3 0 370.7 0 355.8 0C341 0 326 0 311.2 0C296.3 0 281.7 0 266.8 0C252 0 237 0 222.2 0C207.3 0 192.7 0 177.8 0C163 0 148 0 133.2 0C118.3 0 103.7 0 88.8 0C74 0 59 0 44.2 0C29.3 0 14.7 0 7.3 0L0 0Z" fill="#fcdf3c"></path><path d="M0 11L7.3 10.7C14.7 10.3 29.3 9.7 44.2 11C59 12.3 74 15.7 88.8 16.3C103.7 17 118.3 15 133.2 14.3C148 13.7 163 14.3 177.8 14.3C192.7 14.3 207.3 13.7 222.2 12.5C237 11.3 252 9.7 266.8 10.7C281.7 11.7 296.3 15.3 311.2 16C326 16.7 341 14.3 355.8 13C370.7 11.7 385.3 11.3 392.7 11.2L400 11L400 0L392.7 0C385.3 0 370.7 0 355.8 0C341 0 326 0 311.2 0C296.3 0 281.7 0 266.8 0C252 0 237 0 222.2 0C207.3 0 192.7 0 177.8 0C163 0 148 0 133.2 0C118.3 0 103.7 0 88.8 0C74 0 59 0 44.2 0C29.3 0 14.7 0 7.3 0L0 0Z" fill="#dae940"></path><path d="M0 7L7.3 7.8C14.7 8.7 29.3 10.3 44.2 11.2C59 12 74 12 88.8 12.5C103.7 13 118.3 14 133.2 13.2C148 12.3 163 9.7 177.8 8.3C192.7 7 207.3 7 222.2 6.8C237 6.7 252 6.3 266.8 6.8C281.7 7.3 296.3 8.7 311.2 8.8C326 9 341 8 355.8 7.2C370.7 6.3 385.3 5.7 392.7 5.3L400 5L400 0L392.7 0C385.3 0 370.7 0 355.8 0C341 0 326 0 311.2 0C296.3 0 281.7 0 266.8 0C252 0 237 0 222.2 0C207.3 0 192.7 0 177.8 0C163 0 148 0 133.2 0C118.3 0 103.7 0 88.8 0C74 0 59 0 44.2 0C29.3 0 14.7 0 7.3 0L0 0Z" fill="#b4f151"></path><path d="M0 8L7.3 7.2C14.7 6.3 29.3 4.7 44.2 5.2C59 5.7 74 8.3 88.8 9.3C103.7 10.3 118.3 9.7 133.2 9.2C148 8.7 163 8.3 177.8 8.5C192.7 8.7 207.3 9.3 222.2 9.8C237 10.3 252 10.7 266.8 10.3C281.7 10 296.3 9 311.2 8.2C326 7.3 341 6.7 355.8 7.2C370.7 7.7 385.3 9.3 392.7 10.2L400 11L400 0L392.7 0C385.3 0 370.7 0 355.8 0C341 0 326 0 311.2 0C296.3 0 281.7 0 266.8 0C252 0 237 0 222.2 0C207.3 0 192.7 0 177.8 0C163 0 148 0 133.2 0C118.3 0 103.7 0 88.8 0C74 0 59 0 44.2 0C29.3 0 14.7 0 7.3 0L0 0Z" fill="#86f76a"></path><path d="M0 7L7.3 5.8C14.7 4.7 29.3 2.3 44.2 2.3C59 2.3 74 4.7 88.8 4.7C103.7 4.7 118.3 2.3 133.2 2.3C148 2.3 163 4.7 177.8 5.5C192.7 6.3 207.3 5.7 222.2 4.5C237 3.3 252 1.7 266.8 2C281.7 2.3 296.3 4.7 311.2 5C326 5.3 341 3.7 355.8 3.2C370.7 2.7 385.3 3.3 392.7 3.7L400 4L400 0L392.7 0C385.3 0 370.7 0 355.8 0C341 0 326 0 311.2 0C296.3 0 281.7 0 266.8 0C252 0 237 0 222.2 0C207.3 0 192.7 0 177.8 0C163 0 148 0 133.2 0C118.3 0 103.7 0 88.8 0C74 0 59 0 44.2 0C29.3 0 14.7 0 7.3 0L0 0Z" fill="#3cfc89"></path></svg>