<svg id="visual" viewBox="0 0 900 300" width="900" height="300" xmlns="http://www.w3.org/2000/svg" xmlns:xlink="http://www.w3.org/1999/xlink" version="1.1"><rect x="0" y="0" width="900" height="300" fill="#fc7f3c"></rect><path d="M0 79L21.5 84.3C43 89.7 86 100.3 128.8 103.2C171.7 106 214.3 101 257.2 97C300 93 343 90 385.8 92.3C428.7 94.7 471.3 102.3 514.2 105C557 107.7 600 105.3 642.8 103C685.7 100.7 728.3 98.3 771.2 97.5C814 96.7 857 97.3 878.5 97.7L900 98L900 0L878.5 0C857 0 814 0 771.2 0C728.3 0 685.7 0 642.8 0C600 0 557 0 514.2 0C471.3 0 428.7 0 385.8 0C343 0 300 0 257.2 0C214.3 0 171.7 0 128.8 0C86 0 43 0 21.5 0L0 0Z" fill="#fcdf3c"></path><path d="M0 84L21.5 81C43 78 86 72 128.8 73.8C171.7 75.7 214.3 85.3 257.2 89.2C300 93 343 91 385.8 87.8C428.7 84.7 471.3 80.3 514.2 78.7C557 77 600 78 642.8 82C685.7 86 728.3 93 771.2 91C814 89 857 78 878.5 72.5L900 67L900 0L878.5 0C857 0 814 0 771.2 0C728.3 0 685.7 0 642.8 0C600 0 557 0 514.2 0C471.3 0 428.7 0 385.8 0C343 0 300 0 257.2 0C214.3 0 171.7 0 128.8 0C86 0 43 0 21.5 0L0 0Z" fill="#dae940"></path><path d="M0 58L21.5 56C43 54 86 50 128.8 49C171.7 48 214.3 50 257.2 54.2C300 58.3 343 64.7 385.8 67.2C428.7 69.7 471.3 68.3 514.2 69.2C557 70 600 73 642.8 71.7C685.7 70.3 728.3 64.7 771.2 64.8C814 65 857 71 878.5 74L900 77L900 0L878.5 0C857 0 814 0 771.2 0C728.3 0 685.7 0 642.8 0C600 0 557 0 514.2 0C471.3 0 428.7 0 385.8 0C343 0 300 0 257.2 0C214.3 0 171.7 0 128.8 0C86 0 43 0 21.5 0L0 0Z" fill="#b4f151"></path><path d="M0 44L21.5 41.7C43 39.3 86 34.7 128.8 33.5C171.7 32.3 214.3 34.7 257.2 36.2C300 37.7 343 38.3 385.8 38.8C428.7 39.3 471.3 39.7 514.2 40.3C557 41 600 42 642.8 43.8C685.7 45.7 728.3 48.3 771.2 46.8C814 45.3 857 39.7 878.5 36.8L900 34L900 0L878.5 0C857 0 814 0 771.2 0C728.3 0 685.7 0 642.8 0C600 0 557 0 514.2 0C471.3 0 428.7 0 385.8 0C343 0 300 0 257.2 0C214.3 0 171.7 0 128.8 0C86 0 43 0 21.5 0L0 0Z" fill="#86f76a"></path><path d="M0 23L21.5 21.2C43 19.3 86 15.7 128.8 16C171.7 16.3 214.3 20.7 257.2 24.3C300 28 343 31 385.8 32.7C428.7 34.3 471.3 34.7 514.2 32.3C557 30 600 25 642.8 23.2C685.7 21.3 728.3 22.7 771.2 23.3C814 24 857 24 878.5 24L900 24L900 0L878.5 0C857 0 814 0 771.2 0C728.3 0 685.7 0 642.8 0C600 0 557 0 514.2 0C471.3 0 428.7 0 385.8 0C343 0 300 0 257.2 0C214.3 0 171.7 0 128.8 0C86 0 43 0 21.5 0L0 0Z" fill="#3cfc89"></path></svg>