<svg id="visual" viewBox="0 0 400 50" width="400" height="50" xmlns="http://www.w3.org/2000/svg" xmlns:xlink="http://www.w3.org/1999/xlink" version="1.1"><rect x="0" y="0" width="400" height="50" fill="#fc7f3c"></rect><path d="M0 28L8.3 29.5C16.7 31 33.3 34 50 34C66.7 34 83.3 31 100 29.7C116.7 28.3 133.3 28.7 150 29.8C166.7 31 183.3 33 200 32.3C216.7 31.7 233.3 28.3 250 28C266.7 27.7 283.3 30.3 300 31.3C316.7 32.3 333.3 31.7 350 31.5C366.7 31.3 383.3 31.7 391.7 31.8L400 32L400 51L391.7 51C383.3 51 366.7 51 350 51C333.3 51 316.7 51 300 51C283.3 51 266.7 51 250 51C233.3 51 216.7 51 200 51C183.3 51 166.7 51 150 51C133.3 51 116.7 51 100 51C83.3 51 66.7 51 50 51C33.3 51 16.7 51 8.3 51L0 51Z" fill="#fcdf3c"></path><path d="M0 39L8.3 38.7C16.7 38.3 33.3 37.7 50 37.3C66.7 37 83.3 37 100 35.8C116.7 34.7 133.3 32.3 150 32.2C166.7 32 183.3 34 200 34.8C216.7 35.7 233.3 35.3 250 34.5C266.7 33.7 283.3 32.3 300 33C316.7 33.7 333.3 36.3 350 37.3C366.7 38.3 383.3 37.7 391.7 37.3L400 37L400 51L391.7 51C383.3 51 366.7 51 350 51C333.3 51 316.7 51 300 51C283.3 51 266.7 51 250 51C233.3 51 216.7 51 200 51C183.3 51 166.7 51 150 51C133.3 51 116.7 51 100 51C83.3 51 66.7 51 50 51C33.3 51 16.7 51 8.3 51L0 51Z" fill="#dae940"></path><path d="M0 33L8.3 33.3C16.7 33.7 33.3 34.3 50 34.5C66.7 34.7 83.3 34.3 100 35.5C116.7 36.7 133.3 39.3 150 40.3C166.7 41.3 183.3 40.7 200 39.7C216.7 38.7 233.3 37.3 250 36.5C266.7 35.7 283.3 35.3 300 35.5C316.7 35.7 333.3 36.3 350 36.7C366.7 37 383.3 37 391.7 37L400 37L400 51L391.7 51C383.3 51 366.7 51 350 51C333.3 51 316.7 51 300 51C283.3 51 266.7 51 250 51C233.3 51 216.7 51 200 51C183.3 51 166.7 51 150 51C133.3 51 116.7 51 100 51C83.3 51 66.7 51 50 51C33.3 51 16.7 51 8.3 51L0 51Z" fill="#b4f151"></path><path d="M0 44L8.3 43.7C16.7 43.3 33.3 42.7 50 41.8C66.7 41 83.3 40 100 39.8C116.7 39.7 133.3 40.3 150 40.8C166.7 41.3 183.3 41.7 200 41.2C216.7 40.7 233.3 39.3 250 38.8C266.7 38.3 283.3 38.7 300 38.5C316.7 38.3 333.3 37.7 350 37.7C366.7 37.7 383.3 38.3 391.7 38.7L400 39L400 51L391.7 51C383.3 51 366.7 51 350 51C333.3 51 316.7 51 300 51C283.3 51 266.7 51 250 51C233.3 51 216.7 51 200 51C183.3 51 166.7 51 150 51C133.3 51 116.7 51 100 51C83.3 51 66.7 51 50 51C33.3 51 16.7 51 8.3 51L0 51Z" fill="#86f76a"></path><path d="M0 46L8.3 45.7C16.7 45.3 33.3 44.7 50 44.3C66.7 44 83.3 44 100 44.7C116.7 45.3 133.3 46.7 150 46.8C166.7 47 183.3 46 200 45.3C216.7 44.7 233.3 44.3 250 43.8C266.7 43.3 283.3 42.7 300 42.8C316.7 43 333.3 44 350 44C366.7 44 383.3 43 391.7 42.5L400 42L400 51L391.7 51C383.3 51 366.7 51 350 51C333.3 51 316.7 51 300 51C283.3 51 266.7 51 250 51C233.3 51 216.7 51 200 51C183.3 51 166.7 51 150 51C133.3 51 116.7 51 100 51C83.3 51 66.7 51 50 51C33.3 51 16.7 51 8.3 51L0 51Z" fill="#3cfc89"></path></svg>