<svg id="visual" viewBox="0 0 900 300" width="900" height="300" xmlns="http://www.w3.org/2000/svg" xmlns:xlink="http://www.w3.org/1999/xlink" version="1.1"><rect x="0" y="0" width="900" height="300" fill="#fc7f3c"></rect><path d="M0 176L16.7 184.3C33.3 192.7 66.7 209.3 100 210C133.3 210.7 166.7 195.3 200 195.8C233.3 196.3 266.7 212.7 300 211.8C333.3 211 366.7 193 400 189.7C433.3 186.3 466.7 197.7 500 199.5C533.3 201.3 566.7 193.7 600 193.8C633.3 194 666.7 202 700 208C733.3 214 766.7 218 800 213.3C833.3 208.7 866.7 195.3 883.3 188.7L900 182L900 301L883.3 301C866.7 301 833.3 301 800 301C766.7 301 733.3 301 700 301C666.7 301 633.3 301 600 301C566.7 301 533.3 301 500 301C466.7 301 433.3 301 400 301C366.7 301 333.3 301 300 301C266.7 301 233.3 301 200 301C166.7 301 133.3 301 100 301C66.7 301 33.3 301 16.7 301L0 301Z" fill="#fcdf3c"></path><path d="M0 201L16.7 202.2C33.3 203.3 66.7 205.7 100 210C133.3 214.3 166.7 220.7 200 220C233.3 219.3 266.7 211.7 300 214.3C333.3 217 366.7 230 400 233C433.3 236 466.7 229 500 225.8C533.3 222.7 566.7 223.3 600 220.8C633.3 218.3 666.7 212.7 700 208.8C733.3 205 766.7 203 800 203.2C833.3 203.3 866.7 205.7 883.3 206.8L900 208L900 301L883.3 301C866.7 301 833.3 301 800 301C766.7 301 733.3 301 700 301C666.7 301 633.3 301 600 301C566.7 301 533.3 301 500 301C466.7 301 433.3 301 400 301C366.7 301 333.3 301 300 301C266.7 301 233.3 301 200 301C166.7 301 133.3 301 100 301C66.7 301 33.3 301 16.7 301L0 301Z" fill="#dae940"></path><path d="M0 241L16.7 243.7C33.3 246.3 66.7 251.7 100 250.3C133.3 249 166.7 241 200 236.8C233.3 232.7 266.7 232.3 300 230.3C333.3 228.3 366.7 224.7 400 223C433.3 221.3 466.7 221.7 500 221.2C533.3 220.7 566.7 219.3 600 219.5C633.3 219.7 666.7 221.3 700 224.2C733.3 227 766.7 231 800 234.8C833.3 238.7 866.7 242.3 883.3 244.2L900 246L900 301L883.3 301C866.7 301 833.3 301 800 301C766.7 301 733.3 301 700 301C666.7 301 633.3 301 600 301C566.7 301 533.3 301 500 301C466.7 301 433.3 301 400 301C366.7 301 333.3 301 300 301C266.7 301 233.3 301 200 301C166.7 301 133.3 301 100 301C66.7 301 33.3 301 16.7 301L0 301Z" fill="#b4f151"></path><path d="M0 251L16.7 249.2C33.3 247.3 66.7 243.7 100 241.5C133.3 239.3 166.7 238.7 200 244.2C233.3 249.7 266.7 261.3 300 263.2C333.3 265 366.7 257 400 251.2C433.3 245.3 466.7 241.7 500 244.3C533.3 247 566.7 256 600 257.8C633.3 259.7 666.7 254.3 700 251.5C733.3 248.7 766.7 248.3 800 249.8C833.3 251.3 866.7 254.7 883.3 256.3L900 258L900 301L883.3 301C866.7 301 833.3 301 800 301C766.7 301 733.3 301 700 301C666.7 301 633.3 301 600 301C566.7 301 533.3 301 500 301C466.7 301 433.3 301 400 301C366.7 301 333.3 301 300 301C266.7 301 233.3 301 200 301C166.7 301 133.3 301 100 301C66.7 301 33.3 301 16.7 301L0 301Z" fill="#86f76a"></path><path d="M0 284L16.7 283.5C33.3 283 66.7 282 100 278C133.3 274 166.7 267 200 265.5C233.3 264 266.7 268 300 268.5C333.3 269 366.7 266 400 264.8C433.3 263.7 466.7 264.3 500 267.5C533.3 270.7 566.7 276.3 600 277C633.3 277.7 666.7 273.3 700 269.8C733.3 266.3 766.7 263.7 800 262.2C833.3 260.7 866.7 260.3 883.3 260.2L900 260L900 301L883.3 301C866.7 301 833.3 301 800 301C766.7 301 733.3 301 700 301C666.7 301 633.3 301 600 301C566.7 301 533.3 301 500 301C466.7 301 433.3 301 400 301C366.7 301 333.3 301 300 301C266.7 301 233.3 301 200 301C166.7 301 133.3 301 100 301C66.7 301 33.3 301 16.7 301L0 301Z" fill="#3cfc89"></path></svg>